HIERARCHY
ROOT root
{
	OFFSET 0.000000 0.000000 0.000000
	CHANNELS 6 Xposition Yposition Zposition Zrotation Yrotation Xrotation
	JOINT lhip
	{
		OFFSET 0.058581 -0.082280 -0.017664
		CHANNELS 3 Zrotation Yrotation Xrotation
		JOINT lknee
		{
			OFFSET 0.043451 -0.386469 0.008037
			CHANNELS 3 Zrotation Yrotation Xrotation
			JOINT lankle
			{
				OFFSET -0.014790 -0.426874 -0.037428
				CHANNELS 3 Zrotation Yrotation Xrotation
				JOINT ltoe
				{
					OFFSET 0.041054 -0.060286 0.122042
					CHANNELS 3 Zrotation Yrotation Xrotation
					End Site
					{
						OFFSET 0.000000 0.000000 0.000000
					}
				}
			}
		}
	}
	JOINT rhip
	{
		OFFSET -0.060310 -0.090513 -0.013543
		CHANNELS 3 Zrotation Yrotation Xrotation
		JOINT rknee
		{
			OFFSET -0.043257 -0.383688 -0.004843
			CHANNELS 3 Zrotation Yrotation Xrotation
			JOINT rankle
			{
				OFFSET 0.019056 -0.420046 -0.034562
				CHANNELS 3 Zrotation Yrotation Xrotation
				JOINT rtoe
				{
					OFFSET -0.034840 -0.062106 0.130323
					CHANNELS 3 Zrotation Yrotation Xrotation
					End Site
					{
						OFFSET 0.000000 0.000000 0.000000
					}
				}
			}
		}
	}
	JOINT lowerback
	{
		OFFSET 0.004439 0.124404 -0.038385
		CHANNELS 3 Zrotation Yrotation Xrotation
		JOINT upperback
		{
			OFFSET 0.004488 0.137956 0.026820
			CHANNELS 3 Zrotation Yrotation Xrotation
			JOINT chest
			{
				OFFSET -0.002265 0.056032 0.002855
				CHANNELS 3 Zrotation Yrotation Xrotation
				JOINT lowerneck
				{
					OFFSET -0.013390 0.211636 -0.033468
					CHANNELS 3 Zrotation Yrotation Xrotation
					JOINT upperneck
					{
						OFFSET 0.010113 0.088937 0.050410
						CHANNELS 3 Zrotation Yrotation Xrotation
						End Site
						{
							OFFSET 0.000000 0.000000 0.000000
						}
					}
				}
				JOINT lclavicle
				{
					OFFSET 0.071702 0.114000 -0.018898
					CHANNELS 3 Zrotation Yrotation Xrotation
					JOINT lshoulder
					{
						OFFSET 0.122921 0.045205 -0.019046
						CHANNELS 3 Zrotation Yrotation Xrotation
						JOINT lelbow
						{
							OFFSET 0.255332 -0.015649 -0.022946
							CHANNELS 3 Zrotation Yrotation Xrotation
							JOINT lwrist
							{
								OFFSET 0.265709 0.012698 -0.007375
								CHANNELS 3 Zrotation Yrotation Xrotation
								End Site
								{
									OFFSET 0.000000 0.000000 0.000000
								}
							}
						}
					}
				}
				JOINT rclavicle
				{
					OFFSET -0.082954 0.112472 -0.023707
					CHANNELS 3 Zrotation Yrotation Xrotation
					JOINT rshoulder
					{
						OFFSET -0.113228 0.046853 -0.008472
						CHANNELS 3 Zrotation Yrotation Xrotation
						JOINT relbow
						{
							OFFSET -0.260127 -0.014369 -0.031269
							CHANNELS 3 Zrotation Yrotation Xrotation
							JOINT rwrist
							{
								OFFSET -0.269108 0.006794 -0.006027
								CHANNELS 3 Zrotation Yrotation Xrotation
								End Site
								{
									OFFSET 0.000000 0.000000 0.000000
								}
							}
						}
					}
				}
			}
		}
	}
}
MOTION
Frames: 7
Frame Time: 0.033333
-1.896719 0.668290 0.993968 -40.775570 0.020052 79.181108 -12.191657 -3.916167 9.675032 -5.093731 -18.498568 14.649443 11.096834 23.942890 -9.686067 0.000000 -0.000000 0.000000 -1.495191 8.629988 -11.333900 10.033200 15.275296 41.084835 7.449527 -5.493221 -12.515027 0.000000 -0.000000 0.000000 3.137296 -0.607483 0.800835 4.577305 2.536530 -2.362581 1.493950 5.077395 2.935465 -6.835347 -8.790876 8.449221 -3.978865 -9.876591 -16.314237 -0.420887 4.086130 -11.100972 -12.896936 -4.300013 -16.191104 16.569996 -2.329541 -31.468691 -5.630320 5.460092 5.524569 8.215564 4.811592 -3.309786 21.471405 7.682782 -7.905830 -24.517606 6.423218 -27.229112 -0.924225 -5.872271 14.016308 
-1.902767 0.668966 0.997527 -32.531311 -0.597760 79.688468 -12.053177 -5.462589 8.484230 -7.275697 -20.913062 17.597754 11.168087 22.512779 -8.501148 0.000000 -0.000000 0.000000 -1.674488 9.055741 -10.507397 8.722258 20.193096 33.216603 7.878444 -5.267331 -13.671513 0.000000 -0.000000 0.000000 1.506760 1.639142 -0.307217 3.844623 2.762094 -1.476500 1.290181 6.416788 3.789673 -6.484588 -8.491628 9.196391 -1.413805 -12.285806 -16.555453 2.999881 1.078894 -12.407989 -9.409045 -5.890051 -13.252273 13.590346 -4.838520 -25.549233 0.579587 5.383492 10.038465 6.746796 7.502586 -2.316650 23.223805 5.178576 -5.460852 -23.877009 10.788237 -23.708775 -5.291826 -3.362636 12.993330 
-1.909186 0.669410 1.001823 -22.315556 -0.644337 80.411707 -11.281228 -6.008315 6.398040 -9.011159 -21.280017 21.266654 11.132148 20.274804 -7.594266 0.000000 -0.000000 0.000000 -2.190977 7.772445 -9.078503 5.988864 22.102213 25.855501 7.969492 -3.777375 -13.365554 0.000000 -0.000000 0.000000 1.379924 3.252255 -0.399222 2.293485 2.557032 -1.490050 0.520055 6.842190 3.546992 -7.652252 -6.983239 8.922844 1.014620 -12.489201 -14.485533 5.784064 -2.704497 -13.436787 -7.161093 -8.684232 -15.405934 16.430258 -8.718621 -17.909592 -6.143855 6.372659 17.684787 3.929295 9.971429 0.553637 26.644509 2.010072 -3.227135 -22.764574 15.690098 -9.173513 -1.766669 -5.988553 16.837409 
-1.916219 0.670519 1.005499 -9.818359 -0.216175 81.427545 -10.235102 -7.355765 4.540134 -10.186342 -21.736594 23.872622 11.922594 19.136992 -5.933972 0.000000 -0.000000 0.000000 -2.505492 6.733468 -7.183563 4.645368 23.533469 20.526873 8.583152 -4.217669 -12.380467 0.000000 -0.000000 0.000000 0.695466 5.049595 -1.529239 1.224432 2.777635 -0.543735 -0.136260 7.300916 2.963007 -7.971300 -5.502682 10.125781 3.383226 -10.240464 -13.458132 7.085970 -6.569166 -16.043955 -4.141752 -15.516006 -12.268002 13.960704 -15.098743 -9.125154 -2.756889 6.560861 22.961936 2.974148 11.062628 2.269072 26.244154 -4.258065 3.023425 -14.169664 19.134779 8.248548 1.004232 -7.536544 18.609551 
-1.924945 0.671967 1.007648 4.730187 0.654797 82.755690 -7.790569 -7.701696 1.717591 -11.663023 -20.907538 26.566432 11.385641 18.085540 -5.778873 0.000000 -0.000000 0.000000 -1.980936 4.981164 -5.507474 3.374575 22.974598 17.861659 8.331857 -6.450362 -12.972202 0.000000 -0.000000 0.000000 0.004613 6.190598 -1.885655 0.311782 2.679577 -0.030116 -1.004523 7.511213 1.652199 -7.027629 -2.211244 9.502307 5.565682 -5.333323 -11.304376 6.216711 -11.684335 -18.113642 0.358709 -22.803856 -8.949153 10.969870 -23.566724 -0.039862 -0.116027 6.311601 28.628291 5.370359 11.728073 4.428794 25.321899 -9.857052 8.704987 -5.877859 19.279378 21.974097 5.829238 -10.904103 21.458810 
-1.935048 0.673090 1.008753 19.945624 1.464175 84.215959 -5.113562 -8.577431 -1.042981 -12.350005 -18.252125 27.380574 10.814489 17.830568 -6.447744 0.000000 -0.000000 0.000000 -1.472899 2.363723 -3.031593 2.151090 18.869221 14.609321 7.144139 -9.085578 -14.439992 0.000000 -0.000000 0.000000 -1.289639 7.130706 -1.951990 0.027583 2.133446 -0.110906 -0.376905 7.008026 1.381737 -7.211104 1.702145 7.714621 7.108757 -0.604049 -10.058873 5.852722 -15.243057 -18.997615 -0.732603 -29.027651 -6.820027 10.780080 -34.845479 4.196503 5.320799 2.922627 27.971999 6.962281 12.414593 7.146779 28.195501 -13.929759 11.416229 -0.708821 17.503279 30.165054 9.833103 -12.891265 20.477323 
-1.944163 0.673450 1.006910 35.459132 1.914522 85.674905 -3.484142 -8.696511 -3.508095 -10.888744 -16.016190 27.114080 10.800699 17.581949 -7.982281 0.000000 -0.000000 0.000000 -0.202550 -1.107015 -0.331409 0.192586 13.388477 11.110268 5.218165 -12.771127 -16.254760 0.000000 -0.000000 0.000000 -1.972833 7.782630 -1.991118 -0.553309 1.603070 0.857757 -0.167669 6.842958 0.661681 -7.747643 3.656765 5.651065 8.344566 2.816743 -9.540418 4.395868 -18.250758 -18.743295 -2.958251 -35.302407 -5.107992 13.085381 -47.817845 4.282723 13.186892 -2.882190 26.868633 9.359961 12.219088 8.791256 32.378476 -18.106835 13.505380 2.169397 17.225873 34.986215 9.345583 -11.660748 22.932336 
